<svg width="640" height="520" viewBox="0 0 640 520" fill="none" xmlns="http://www.w3.org/2000/svg">
  <rect width="640" height="520" rx="40" fill="#2A0F70"/>
  <rect x="20" y="20" width="600" height="480" rx="30" stroke="rgba(255,255,255,0.08)"/>
  <circle cx="334" cy="263" r="126" fill="url(#paint0_radial_2_8)" fill-opacity="0.75"/>
  <circle cx="320" cy="260" r="114" stroke="#8A68FF" stroke-width="1.4"/>
  <ellipse cx="320" cy="260" rx="114" ry="44" stroke="#C6B6FF" stroke-width="1.5"/>
  <ellipse cx="320" cy="260" rx="44" ry="114" stroke="#C6B6FF" stroke-width="1.5"/>
  <path d="M208 196C245 234 302 242 362 224C414 209 461 218 514 261" stroke="#A78BFA" stroke-width="2" stroke-linecap="round"/>
  <path d="M159 311C209 278 259 283 317 307C382 335 454 332 506 281" stroke="#EEE8FF" stroke-width="2" stroke-linecap="round"/>
  <path d="M252 145C285 172 347 185 403 169C446 156 488 165 528 196" stroke="#8F75FF" stroke-width="2" stroke-linecap="round"/>
  <g filter="url(#filter0_d_2_8)">
    <rect x="74" y="90" width="160" height="114" rx="20" fill="#4B1FD1"/>
    <text x="102" y="125" fill="#F7F5FF" font-size="18" font-family="Avenir Next, Segoe UI, sans-serif">Travel Guidance</text>
    <text x="102" y="158" fill="#D5CBFF" font-size="14" font-family="Avenir Next, Segoe UI, sans-serif">Structured pathways</text>
  </g>
  <g filter="url(#filter1_d_2_8)">
    <rect x="396" y="336" width="176" height="112" rx="20" fill="#34108F"/>
    <text x="425" y="372" fill="#F7F5FF" font-size="18" font-family="Avenir Next, Segoe UI, sans-serif">Digital Solutions</text>
    <text x="425" y="405" fill="#D5CBFF" font-size="14" font-family="Avenir Next, Segoe UI, sans-serif">Media, marketing, tech</text>
  </g>
  <circle cx="208" cy="196" r="8" fill="#A78BFA"/>
  <circle cx="159" cy="311" r="7" fill="#EEE8FF"/>
  <circle cx="514" cy="261" r="8" fill="#A78BFA"/>
  <circle cx="506" cy="281" r="7" fill="#EEE8FF"/>
  <circle cx="528" cy="196" r="7" fill="#8F75FF"/>
  <defs>
    <filter id="filter0_d_2_8" x="46" y="74" width="216" height="170" filterUnits="userSpaceOnUse" color-interpolation-filters="sRGB">
      <feFlood flood-opacity="0" result="BackgroundImageFix"/>
      <feColorMatrix in="SourceAlpha" type="matrix" values="0 0 0 0 0 0 0 0 0 0 0 0 0 0 0 0 0 0 127 0" result="hardAlpha"/>
      <feOffset dy="12"/>
      <feGaussianBlur stdDeviation="14"/>
      <feComposite in2="hardAlpha" operator="out"/>
      <feColorMatrix type="matrix" values="0 0 0 0 0.184314 0 0 0 0 0.0627451 0 0 0 0 0.466667 0 0 0 0.35 0"/>
      <feBlend mode="normal" in2="BackgroundImageFix" result="effect1_dropShadow_2_8"/>
      <feBlend mode="normal" in="SourceGraphic" in2="effect1_dropShadow_2_8" result="shape"/>
    </filter>
    <filter id="filter1_d_2_8" x="368" y="320" width="232" height="168" filterUnits="userSpaceOnUse" color-interpolation-filters="sRGB">
      <feFlood flood-opacity="0" result="BackgroundImageFix"/>
      <feColorMatrix in="SourceAlpha" type="matrix" values="0 0 0 0 0 0 0 0 0 0 0 0 0 0 0 0 0 0 127 0" result="hardAlpha"/>
      <feOffset dy="12"/>
      <feGaussianBlur stdDeviation="14"/>
      <feComposite in2="hardAlpha" operator="out"/>
      <feColorMatrix type="matrix" values="0 0 0 0 0.184314 0 0 0 0 0.0627451 0 0 0 0 0.466667 0 0 0 0.35 0"/>
      <feBlend mode="normal" in2="BackgroundImageFix" result="effect1_dropShadow_2_8"/>
      <feBlend mode="normal" in="SourceGraphic" in2="effect1_dropShadow_2_8" result="shape"/>
    </filter>
    <radialGradient id="paint0_radial_2_8" cx="0" cy="0" r="1" gradientUnits="userSpaceOnUse" gradientTransform="translate(334 263) rotate(90) scale(126)">
      <stop stop-color="#6C3BFF"/>
      <stop offset="1" stop-color="#2A0F70" stop-opacity="0"/>
    </radialGradient>
  </defs>
</svg>
