<svg width="640" height="480" viewBox="0 0 640 480" fill="none" xmlns="http://www.w3.org/2000/svg">
  <rect width="640" height="480" rx="36" fill="#F8F7FF"/>
  <rect x="28" y="28" width="584" height="424" rx="28" stroke="#DED6FF"/>
  <rect x="96" y="108" width="316" height="212" rx="24" fill="#34108F"/>
  <rect x="124" y="136" width="260" height="156" rx="18" fill="#4B1FD1"/>
  <path d="M472 140L544 104V320L472 284V140Z" fill="#A78BFA"/>
  <circle cx="254" cy="214" r="40" fill="#A78BFA"/>
  <path d="M242 192L284 214L242 236V192Z" fill="#34108F"/>
  <rect x="112" y="352" width="416" height="20" rx="10" fill="#ECE6FF"/>
  <rect x="112" y="352" width="168" height="20" rx="10" fill="#6C3BFF"/>
  <rect x="96" y="88" width="126" height="12" rx="6" fill="#A78BFA"/>
  <path d="M154 388C198 337 253 314 312 319C371 323 423 357 470 415" stroke="#C9BCFF" stroke-width="6" stroke-linecap="round"/>
  <circle cx="312" cy="319" r="10" fill="#6C3BFF"/>
  <circle cx="470" cy="415" r="10" fill="#A78BFA"/>
</svg>
