<svg width="640" height="480" viewBox="0 0 640 480" fill="none" xmlns="http://www.w3.org/2000/svg">
  <rect width="640" height="480" rx="36" fill="#F8F7FF"/>
  <rect x="28" y="28" width="584" height="424" rx="28" stroke="#DED6FF"/>
  <path d="M104 366H536" stroke="#E8E1FF" stroke-width="10" stroke-linecap="round"/>
  <rect x="124" y="276" width="74" height="90" rx="18" fill="#D8CEFF"/>
  <rect x="226" y="222" width="74" height="144" rx="18" fill="#A78BFA"/>
  <rect x="328" y="170" width="74" height="196" rx="18" fill="#6C3BFF"/>
  <rect x="430" y="120" width="74" height="246" rx="18" fill="#4B1FD1"/>
  <path d="M140 198C191 151 249 135 307 149C370 164 419 212 470 254" stroke="#6C3BFF" stroke-width="8" stroke-linecap="round"/>
  <circle cx="140" cy="198" r="12" fill="#F0EBFF"/>
  <circle cx="307" cy="149" r="12" fill="#C9BCFF"/>
  <circle cx="470" cy="254" r="12" fill="#A78BFA"/>
  <rect x="92" y="84" width="182" height="70" rx="22" fill="#34108F"/>
  <path d="M132 119H240" stroke="#F0EBFF" stroke-width="10" stroke-linecap="round"/>
  <path d="M132 140H204" stroke="#A78BFA" stroke-width="10" stroke-linecap="round"/>
</svg>
